<?xml version="1.0" encoding="UTF-8" standalone="no"?>
<!-- Created with Inkscape (http://www.inkscape.org/) -->

<svg
   xmlns:dc="http://purl.org/dc/elements/1.1/"
   xmlns:cc="http://creativecommons.org/ns#"
   xmlns:rdf="http://www.w3.org/1999/02/22-rdf-syntax-ns#"
   xmlns:svg="http://www.w3.org/2000/svg"
   xmlns="http://www.w3.org/2000/svg"
   xmlns:sodipodi="http://sodipodi.sourceforge.net/DTD/sodipodi-0.dtd"
   xmlns:inkscape="http://www.inkscape.org/namespaces/inkscape"
   width="1000"
   height="700"
   id="svg2"
   version="1.1"
   inkscape:version="0.48.2 r9819"
   sodipodi:docname="eye-pippi.svg"
   inkscape:export-filename="F:\SPLETNA\00-BACK-UP-Tomo\04-Fotke-Z-NET-a\06-Pippi-Cliparts\Anime\eye-blue-001ad.png"
   inkscape:export-xdpi="99.980003"
   inkscape:export-ydpi="99.980003">
  <defs
     id="defs4" />
  <sodipodi:namedview
     id="base"
     pagecolor="#ffffff"
     bordercolor="#666666"
     borderopacity="1.0"
     inkscape:pageopacity="0.0"
     inkscape:pageshadow="2"
     inkscape:zoom="0.3"
     inkscape:cx="365.8635"
     inkscape:cy="270.49927"
     inkscape:document-units="px"
     inkscape:current-layer="layer1"
     showgrid="false"
     fit-margin-top="0"
     fit-margin-left="0"
     fit-margin-right="0"
     fit-margin-bottom="0"
     showguides="true"
     inkscape:guide-bbox="true"
     inkscape:window-width="1280"
     inkscape:window-height="968"
     inkscape:window-x="-4"
     inkscape:window-y="-4"
     inkscape:window-maximized="1" />
  <metadata
     id="metadata7">
    <rdf:RDF>
      <cc:Work
         rdf:about="">
        <dc:format>image/svg+xml</dc:format>
        <dc:type
           rdf:resource="http://purl.org/dc/dcmitype/StillImage" />
        <dc:title></dc:title>
      </cc:Work>
    </rdf:RDF>
  </metadata>
  <g
     inkscape:label="Layer 1"
     inkscape:groupmode="layer"
     id="layer1"
     transform="translate(10.858584,182.8528)">
    <path
       style="fill:#ffffff;stroke:#000000;stroke-width:1px;stroke-linecap:butt;stroke-linejoin:miter;stroke-opacity:1;fill-opacity:1"
       d="m 145.46787,447.31648 c 16.61734,-86.06721 35.40378,-190.88717 95.4871,-261.67937 28.84817,-33.98988 71.94572,-64.72192 116.51752,-65.66143 52.29136,-1.10223 105.82204,31.46092 139.82227,71.20492 53.79117,62.87827 66.81213,155.66576 77.04214,235.98516 0,0 -123.5946,26.3155 -186.42865,30.05898 -80.73776,4.81014 -242.44038,-9.90826 -242.44038,-9.90826 z"
       id="path2985"
       inkscape:connector-curvature="0"
       sodipodi:nodetypes="caaacac" />
    <path
       style="fill:#e5ae98;fill-opacity:1;stroke:#784630;stroke-width:1px;stroke-linecap:butt;stroke-linejoin:miter;stroke-opacity:1"
       d="m 151.58302,432.50688 c 0,0 153.84246,14.75582 230.82797,11.78379 62.83919,-2.42592 187.11033,-24.11562 187.11033,-24.11562 l 0.83766,8.5304 c 0,0 -124.37222,26.26099 -187.58616,29.76536 -78.93209,4.37573 -236.90234,-11.04855 -236.90234,-11.04855 z"
       id="path3759"
       inkscape:connector-curvature="0"
       sodipodi:nodetypes="caccacc" />
    <path
       style="fill:#5b56e7;fill-opacity:1;stroke:#2c4782;stroke-width:0.97207856000000004px;stroke-linecap:butt;stroke-linejoin:miter;stroke-opacity:1"
       d="m 323.10431,133.17408 c -24.32968,10.39163 -46.49035,29.13037 -60.13847,51.79418 -23.02771,38.23938 -35.23336,86.25638 -29.78045,130.55978 4.47324,36.34383 19.14278,77.76314 49.6723,97.98275 50.4625,33.42115 128.49909,42.24489 181.15517,12.39905 37.54519,-21.28088 55.19179,-72.35609 58.76797,-115.36456 3.57191,-42.95706 -15.21688,-87.29666 -38.86086,-123.33871 -17.46192,-26.61834 -41.79976,-52.91438 -72.12433,-62.60326 -28.29248,-9.03962 -61.37699,-3.09565 -88.69133,8.57077 z"
       id="path3761"
       inkscape:connector-curvature="0"
       sodipodi:nodetypes="aaaaaaaaa" />
    <path
       style="fill:#130804;fill-opacity:1;stroke:#000000;stroke-width:1.10300136px;stroke-linecap:butt;stroke-linejoin:miter;stroke-opacity:1"
       d="m 392.6963,201.45144 c -25.39258,-1.41846 -54.70856,10.98909 -70.445,34.71119 -16.13265,24.3194 -24.41192,64.36229 -12.2513,91.75031 13.44294,30.27603 49.3047,44.93652 78.10206,43.97349 26.72873,-0.89387 57.52183,-17.77958 70.44499,-45.59481 11.72283,-25.23168 8.56547,-62.08058 -4.59424,-86.29129 -12.53577,-23.06287 -38.17628,-37.2596 -61.25651,-38.54889 z"
       id="path3763"
       inkscape:connector-curvature="0"
       sodipodi:nodetypes="aaaaaaa" />
    <path
       style="opacity:0.51569507000000003;fill:#ffffff;fill-opacity:1;stroke:#ffffff;stroke-width:1px;stroke-linecap:butt;stroke-linejoin:miter;stroke-opacity:1"
       d="m 281.42857,195.21932 c 9.54952,-20.17406 34.73498,-44.7622 55.71429,-37.14286 23.79372,8.64149 25.36621,47.85091 21.42857,72.85714 -5.91689,37.57565 -27.42884,103.69366 -64.28572,94.28572 -42.19192,-10.76973 -31.48752,-90.64198 -12.85714,-130 z"
       id="path3765"
       inkscape:connector-curvature="0"
       sodipodi:nodetypes="aaaaa" />
    <path
       style="opacity:0.68609864;fill:#ffffff;fill-opacity:1;stroke:#000000;stroke-width:0.41114604px;stroke-linecap:butt;stroke-linejoin:miter;stroke-opacity:1"
       d="m 369.74537,371.32466 c 4.44926,-7.31946 16.18354,-16.24041 25.95811,-13.476 11.08585,3.13527 11.81849,17.36105 9.98389,26.4337 -2.75677,13.63302 -12.7795,37.62166 -29.95167,34.20831 -19.65784,-3.90742 -14.6705,-32.88631 -5.99033,-47.16601 z"
       id="path3765-1"
       inkscape:connector-curvature="0"
       sodipodi:nodetypes="aaaaa" />
    <path
       style="fill:#532004;fill-opacity:1;stroke:#000000;stroke-width:1px;stroke-linecap:butt;stroke-linejoin:miter;stroke-opacity:1"
       d="M 58.571429,-39.066389 C 43.356742,-32.818601 38.16519,-9.69698 40,6.647897 43.433642,37.235515 92.857143,82.36218 92.857143,82.36218 c 0,0 244.000427,-126.481481 375.714287,-122.85714 149.65585,4.118046 418.57142,162.85715 418.57142,162.85715 0,0 -255.53309,-238.60898 -418.57142,-270.00001 -87.99499,-16.94235 -206.26837,24.91068 -410.000001,108.571431 z"
       id="path3785"
       inkscape:connector-curvature="0"
       sodipodi:nodetypes="sacacss" />
    <path
       style="fill:#a3877c;fill-opacity:1;stroke:#542f2f;stroke-width:1px;stroke-linecap:butt;stroke-linejoin:miter;stroke-opacity:1"
       d="m 148.30354,446.90877 c 0,0 14.02545,-76.28698 26.02773,-113.04444 14.36577,-43.99578 28.25366,-89.63434 54.69794,-127.61727 16.87139,-24.23301 38.50778,-46.51618 64.24729,-60.98544 20.19961,-11.35505 44.04562,-15.79337 67.09284,-18.19901 18.22042,-1.90184 37.46635,-2.59751 54.86938,3.12395 20.91204,6.87512 39.23595,21.04917 55.29782,36.1023 19.48517,18.26145 35.58764,40.48724 48.04995,64.10593 12.77538,24.21203 17.96144,45.32463 26.44424,77.75346 8.48281,32.42883 23.08906,120.98663 23.08906,120.98663 l 7.33774,-3.43193 c 0,0 -11.44432,-100.50653 -27.72781,-147.97457 -12.62487,-36.80278 -28.51194,-73.90314 -53.45397,-103.76494 -20.94778,-25.07969 -46.99448,-48.68091 -77.75865,-59.69754 -17.64077,-6.31715 -37.60372,-4.28871 -56.18266,-1.85431 -25.01908,3.27825 -50.64409,9.22594 -72.46023,21.90495 -25.5293,14.83701 -47.44026,36.70776 -64.24729,60.98544 -27.16957,39.24631 -41.36908,86.39018 -55.71414,131.91685 -12.17424,38.63718 -25.43737,118.83741 -25.43737,118.83741 z"
       id="path2987"
       inkscape:connector-curvature="0"
       sodipodi:nodetypes="caaaaaaazccaaaaaaacc" />
    <path
       style="fill:#555252;fill-opacity:1;stroke:#3f2727;stroke-width:1px;stroke-linecap:butt;stroke-linejoin:miter;stroke-opacity:1"
       d="m 571.71611,426.90722 c 56.77826,18.84297 110.41114,14.75809 159.50503,-15.43283 -48.54621,8.29028 -97.99509,5.13128 -148.93332,-16.9179 49.96414,7.51724 95.54152,2.82511 130.87417,-30.38044 -39.35022,18.29443 -83.22384,14.61687 -128.73508,2.9847 45.68443,3.63927 82.38834,-19.49271 118.24585,-45.14784 -38.24574,15.64831 -78.03215,24.42547 -122.14023,13.92878 38.45608,-2.98119 76.86345,-6.58019 112.10011,-50.39532 -40.02715,25.46424 -81.66778,30.46385 -124.98853,14.15335 39.71623,3.00014 78.03965,2.41077 103.59072,-31.09537 -31.15795,16.7866 -65.41244,18.53196 -102.7635,5.23607 36.40672,12.01834 62.86985,-11.06139 88.90006,-35.66915 -28.75805,14.07885 -55.30868,34.30145 -98.1542,9.17167 45.30556,8.22013 61.66352,-18.00238 87.70048,-32.70855 -29.34783,12.23967 -58.56939,25.04255 -93.65718,11.68312 30.16375,-2.24547 59.31462,-5.77817 56.22133,-50.28875 -8.30707,22.78502 -26.82778,35.75547 -68.0992,26.86415 32.28148,-9.90908 35.83295,-37.10118 40.85698,-63.40743 -13.72961,22.29476 -29.73388,41.88305 -64.24036,39.45694 38.03717,-5.33858 46.69914,-33.43476 40.07101,-73.3765 -11.73593,22.25295 -18.74594,47.95126 -57.64548,50.40103 32.97753,-18.54733 31.08726,-48.89038 38.42228,-76.11253 -14.21643,20.73054 -22.7773,45.29763 -55.99677,53.13705 27.50515,-16.19867 24.91149,-44.592947 30.32651,-69.742218 -6.59462,28.019024 -28.40666,43.044808 -63.67894,46.577718 21.57609,-8.67461 33.09369,-22.966595 18.85653,-51.641852 0.80533,19.282725 -17.38512,32.139211 -43.96538,42.157432 21.87505,-10.667529 18.40539,-31.604341 17.43238,-51.529565 -10.37874,16.593994 -13.41479,38.169055 -42.54123,42.045157 25.23784,-17.275177 5.77946,-31.026427 -5.0172,-45.460575 6.22863,15.953035 3.5955,31.501023 -20.72981,46.057516 20.61189,-20.913753 0.99449,-26.217753 -14.088,-33.281381 7.57035,12.229068 17.2354,24.753309 -8.92301,32.229606 6.09479,-14.374979 -2.9141,-16.865361 -18.32492,-14.318282 17.20751,6.451753 9.68052,25.826424 6.1045,41.075844 60.81834,-18.250833 89.07517,2.18379 123.85999,26.05976 42.86404,29.42146 66.14429,82.36594 84.83507,130.87988 18.5498,48.14801 24.71934,152.80671 24.71934,152.80671 z"
       id="path2989"
       inkscape:connector-curvature="0"
       sodipodi:nodetypes="cccccccccccccccccccccccccccccccccccaac" />
  </g>
</svg>
