<?xml version="1.0" encoding="UTF-8" standalone="no"?>
<svg xmlns="http://www.w3.org/2000/svg" width="317.54001" height="317.54001" version="1.0">
  <g stroke="#000" stroke-linecap="round" stroke-linejoin="round" stroke-width="3.45000911" transform="translate(-221.23847 -64.784815) scale(1.28939)">
    <path fill="#f7c1b6" d="m302.9834 133.44637 30.10273 82.4446s9.33679-.4469 16.46435 0c4.58486.28748 8.21963-1.56635 11.70456-4.74777 4.51793-4.12444 8.69157-9.01347 8.69157-9.01347l46.24446.59198.08433-75.78736-43.87142.49148c-17.96613-11.91167-42.46756-25.4931-58.18017-27.675811"/>
    <path fill="#dbb66c" d="m173.53896 125.38962 47.69764-.08688c12.29616-13.88177 24.22319-14.14117 38.22765-18.50564 33.03641-10.295761 52.52356 21.25927 61.08858 27.15693 1.21103.83389 1.83992 1.38152 2.72145 2.36672 14.43595 16.13363 16.75052 17.65103 26.19866 27.47026 6.86841 7.12854 9.29241 8.01572 9.38315 19.46135.10159 12.81437-1.3901 31.62467-1.3901 31.62467-1.96767 5.97421-8.16133 9.39412-13.51127 9.58673-5.4735 6.07141-10.70126 7.3247-17.15771 5.35681-2.74558 5.8083-8.13837 9.10161-15.72547 8.68809-4.43973 3.95207-6.78623 4.07046-13.63563 2.82235-42.6123 2.63843-62.55876-18.64818-82.1072-40.35493l-41.87664.52129.08689-76.10775z"/>
    <path fill="#f7c1b6" d="m217.96483 211.49693 16.46434-15.23567c7.21163-1.45854 12.50393 6.75619 9.338 12.53257l-14.49846 16.95582c-7.54252-.29814-13.48526-7.5187-11.30388-14.25272zm15.96385 11.52673c10.32442-14.52311 19.2644-21.43792 29.61753-34.34918 8.0363-7.20791 20.40799 1.63328 15.40449 10.11806-5.0035 8.48478-29.71239 33.57022-31.99357 35.72858-5.8788 2.82735-15.5422-3.59487-13.02845-11.49746z"/>
    <path fill="none" d="M310.94089 238.253c.74979-10.0389 1.13187-19.375.48917-25.1716-3.46354-6.25498-17.03673-15.79084-27.76593-23.72997"/>
    <path fill="#f7c1b6" d="M253.59663 231.15586c12.32298-13.34389 22.8096-28.35729 34.89458-42.02096 7.36465-7.61385 20.79395 2.64686 15.4814 10.0752-8.36279 11.6934-31.63658 38.93283-35.87753 43.0039-5.81458 2.37506-15.46642-3.47261-14.49845-11.05814zM313.8385 99.818839c-10.75809 2.369511-26.16073 13.026641-38.77515 19.743421-9.82945 30.37807-17.2901 40.13348-7.86356 42.51242 14.13674 4.50955 29.20088-18.11246 34.89458-32.68296l19.7988 4.88029"/>
    <path fill="none" d="m326.91376 229.89796.24574-31.20855-24.81939-22.60776-.49148-2.7031m12.53257-18.67597s.27183.43286.49148 2.45737c1.07537 1.57506 24.08378 22.52316 27.03101 27.27674.0842 13.43361.32536 26.62147 1.72016 40.05506"/>
    <path fill="#f7c1b6" d="M274.39221 240.54455c.88992-1.55033 19.09473-25.46347 27.44786-33.86299 6.90205-6.9404 19.45383 3.89787 11.50298 13.41622-10.01865 11.99379-16.9471 20.83592-25.76617 27.44612-5.64644 1.60284-13.88802-1.36991-13.18467-6.99935z"/>
  </g>
</svg>